<?xml version="1.0" encoding="iso-8859-1"?>
<!DOCTYPE svg PUBLIC "-//W3C//DTD SVG 20000303 Stylable//EN" "http://www.w3.org/2000/svg10-20000303-stylable">
<svg width="857" height="390" viewBox="99 74 857 390">
<marker id="decorator_0"/>
<marker id="decorator_1" viewBox="-20 -10 20 20"
                   markerUnits="userSpaceOnUse" refX="0" refY="0"
                   markerWidth="10" markerHeight="10" orient="auto"
                   style="fill:none;stroke:black;stroke-width:2">
<path d="M-20,-10 L0,0 -20,10"/>
</marker>
<marker id="decorator_5" viewBox="-20 -10 20 20"
                   markerUnits="userSpaceOnUse" refX="0" refY="0"
                   markerWidth="10" markerHeight="10" orient="auto"
                   style="fill:white;stroke:black;stroke-width:2">
<path d="M-20,-10 L0,0 -20,10 z"/>
</marker>
<rect x="104" y="152" width="100" height="254" fill ="#DBD5D5" stroke="black" stroke-width="1"/>
<rect x="104" y="152" width="100" height="16" fill ="#DBD5D5" stroke="black" stroke-width="1"/>
<text x="109" y="164">
Queue
</text>
<rect x="104" y="167" width="100" height="32" fill ="#DBD5D5" stroke="black" stroke-width="1"/>
<text x="134" y="179">
Integer
</text>
<text x="109" y="179">
last
</text>
<text x="134" y="195">
Integer
</text>
<text x="109" y="195">
first
</text>
<rect x="104" y="198" width="100" height="208" fill ="#DBD5D5" stroke="black" stroke-width="1"/>
<text x="109" y="210">
topIndex()
</text>
<text x="109" y="226">
asSeq()
</text>
<text x="109" y="242">
top()
</text>
<text x="109" y="258">
expand()
</text>
<text x="109" y="274">
size()
</text>
<text x="109" y="290">
empty()
</text>
<text x="109" y="306">
put()
</text>
<text x="109" y="322">
indexOf()
</text>
<text x="109" y="338">
ref()
</text>
<text x="109" y="354">
isEmpty()
</text>
<text x="109" y="370">
push()
</text>
<text x="109" y="386">
isFull()
</text>
<text x="109" y="402">
pop()
</text>
<rect x="230" y="303" width="100" height="46" fill ="#DBD5D5" stroke="black" stroke-width="1"/>
<rect x="230" y="303" width="100" height="16" fill ="#DBD5D5" stroke="black" stroke-width="1"/>
<text x="235" y="315">
StackUnderflow
</text>
<rect x="230" y="318" width="100" height="16" fill ="#DBD5D5" stroke="black" stroke-width="1"/>
<rect x="230" y="333" width="100" height="16" fill ="#DBD5D5" stroke="black" stroke-width="1"/>
<text x="235" y="345">
toString()
</text>
<rect x="600" y="150" width="106" height="235" fill ="#DBD5D5" stroke="black" stroke-width="1"/>
<rect x="600" y="150" width="106" height="29" fill ="#DBD5D5" stroke="black" stroke-width="1"/>
<text x="605" y="162">
Vector
</text>
<text x="605" y="175">
(from Root::EMOF)
</text>
<rect x="600" y="178" width="106" height="16" fill ="#DBD5D5" stroke="black" stroke-width="1"/>
<rect x="600" y="193" width="106" height="192" fill ="#DBD5D5" stroke="black" stroke-width="1"/>
<text x="605" y="205">
edit()
</text>
<text x="605" y="221">
asSeq()
</text>
<text x="605" y="237">
toString()
</text>
<text x="605" y="253">
copyInto()
</text>
<text x="605" y="269">
size()
</text>
<text x="605" y="285">
daemons()
</text>
<text x="605" y="301">
setDaemonsActive()
</text>
<text x="605" y="317">
daemonsActive()
</text>
<text x="605" y="333">
setDaemons()
</text>
<text x="605" y="349">
init()
</text>
<text x="605" y="365">
put()
</text>
<text x="605" y="381">
ref()
</text>
<rect x="409" y="281" width="120" height="155" fill ="#DBD5D5" stroke="black" stroke-width="1"/>
<rect x="409" y="281" width="120" height="29" fill ="#DBD5D5" stroke="black" stroke-width="1"/>
<text x="414" y="293">
Exception
</text>
<text x="414" y="306">
(from Root::EMOF)
</text>
<rect x="409" y="309" width="120" height="64" fill ="#DBD5D5" stroke="black" stroke-width="1"/>
<text x="489" y="321">
Integer
</text>
<text x="414" y="321">
lineCount
</text>
<text x="489" y="337">
String
</text>
<text x="414" y="337">
message
</text>
<text x="489" y="353">
Integer
</text>
<text x="414" y="353">
charCount
</text>
<text x="489" y="369">
String
</text>
<text x="414" y="369">
resourceName
</text>
<rect x="409" y="372" width="120" height="64" fill ="#DBD5D5" stroke="black" stroke-width="1"/>
<text x="414" y="384">
toString()
</text>
<text x="414" y="400">
printBacktrace()
</text>
<text x="414" y="416">
setBacktrace()
</text>
<text x="414" y="432">
printFrame()
</text>
<rect x="800" y="150" width="100" height="238" fill ="#DBD5D5" stroke="black" stroke-width="1"/>
<rect x="800" y="150" width="100" height="16" fill ="#DBD5D5" stroke="black" stroke-width="1"/>
<text x="805" y="162">
Stack
</text>
<rect x="800" y="165" width="100" height="16" fill ="#DBD5D5" stroke="black" stroke-width="1"/>
<text x="837" y="177">
Integer
</text>
<text x="805" y="177">
index
</text>
<rect x="800" y="180" width="100" height="208" fill ="#DBD5D5" stroke="black" stroke-width="1"/>
<text x="805" y="192">
topIndex()
</text>
<text x="805" y="208">
asSeq()
</text>
<text x="805" y="224">
top()
</text>
<text x="805" y="240">
expand()
</text>
<text x="805" y="256">
size()
</text>
<text x="805" y="272">
empty()
</text>
<text x="805" y="288">
put()
</text>
<text x="805" y="304">
indexOf()
</text>
<text x="805" y="320">
ref()
</text>
<text x="805" y="336">
isEmpty()
</text>
<text x="805" y="352">
push()
</text>
<text x="805" y="368">
isFull()
</text>
<text x="805" y="384">
pop()
</text>
<line x1="204" y1="213" x2="600" y2="213" stroke="black" stroke-width="1" marker-start="url(#decorator_0)" marker-end="url(#decorator_1)" />
<text x="605" y="232">

</text>
<text x="535" y="244">
elements
</text>
<line x1="247" y1="303" x2="247" y2="79" stroke="black" stroke-width="1" marker-start="url(#decorator_0)" marker-end="url(#decorator_0)" />
<line x1="247" y1="79" x2="465" y2="80" stroke="black" stroke-width="1" marker-start="url(#decorator_0)" marker-end="url(#decorator_0)" />
<line x1="465" y1="80" x2="465" y2="281" stroke="black" stroke-width="1" marker-start="url(#decorator_0)" marker-end="url(#decorator_5)" />
<line x1="800" y1="268" x2="706" y2="268" stroke="black" stroke-width="1" marker-start="url(#decorator_0)" marker-end="url(#decorator_1)" />
<text x="711" y="287">

</text>
<text x="711" y="303">
elements
</text>
<line x1="262" y1="349" x2="262" y2="458" stroke="black" stroke-width="1" marker-start="url(#decorator_0)" marker-end="url(#decorator_0)" />
<line x1="262" y1="458" x2="922" y2="459" stroke="black" stroke-width="1" marker-start="url(#decorator_0)" marker-end="url(#decorator_0)" />
<line x1="922" y1="459" x2="951" y2="350" stroke="black" stroke-width="1" marker-start="url(#decorator_0)" marker-end="url(#decorator_0)" />
<line x1="951" y1="350" x2="900" y2="350" stroke="black" stroke-width="1" marker-start="url(#decorator_0)" marker-end="url(#decorator_1)" />
<text x="905" y="369">

</text>
<text x="910" y="336">
stack
</text>
</svg>
